<svg width="103" height="103" viewBox="0 0 103 103" fill="none" xmlns="http://www.w3.org/2000/svg">
<path d="M6.4375 37.3375C6.4375 26.5215 6.4375 21.1135 8.54244 16.9823C10.394 13.3484 13.3484 10.394 16.9823 8.54244C21.1135 6.4375 26.5215 6.4375 37.3375 6.4375H65.6625C76.4785 6.4375 81.8865 6.4375 86.0177 8.54244C89.6516 10.394 92.606 13.3484 94.4576 16.9823C96.5625 21.1135 96.5625 26.5215 96.5625 37.3375V65.6625C96.5625 76.4785 96.5625 81.8865 94.4576 86.0177C92.606 89.6516 89.6516 92.606 86.0177 94.4576C81.8865 96.5625 76.4785 96.5625 65.6625 96.5625H37.3375C26.5215 96.5625 21.1135 96.5625 16.9823 94.4576C13.3484 92.606 10.394 89.6516 8.54244 86.0177C6.4375 81.8865 6.4375 76.4785 6.4375 65.6625V37.3375Z" fill="white"/>
<path d="M76.0788 30.0631C71.4948 28.0482 66.5935 26.5837 61.4696 25.75C60.8401 26.8189 60.1049 28.2566 59.5982 29.4003C54.151 28.6307 48.7539 28.6307 43.4072 29.4003C42.9004 28.2566 42.1483 26.8189 41.5136 25.75C36.3839 26.5837 31.477 28.0535 26.8932 30.0737C17.6476 43.1999 15.1413 56.0002 16.3945 68.6186C22.5266 72.921 28.4694 75.5344 34.312 77.2446C35.7545 75.3795 37.0411 73.3967 38.1495 71.3069C36.0386 70.5533 34.0168 69.6235 32.1064 68.5437C32.6132 68.1911 33.1089 67.8223 33.5879 67.4429C45.2397 72.5629 57.8993 72.5629 69.4119 67.4429C69.8963 67.8223 70.3921 68.1911 70.8934 68.5437C68.9774 69.6286 66.9501 70.5586 64.8391 71.3123C65.9475 73.3967 67.2285 75.3848 68.6766 77.25C74.5246 75.5398 80.4731 72.9264 86.6053 68.6186C88.0757 53.9906 84.0934 41.308 76.0788 30.0631ZM39.7368 60.8584C36.2391 60.8584 33.3707 57.7905 33.3707 54.0548C33.3707 50.3189 36.1778 47.2459 39.7368 47.2459C43.2958 47.2459 46.1641 50.3135 46.1028 54.0548C46.1086 57.7905 43.2958 60.8584 39.7368 60.8584ZM63.263 60.8584C59.7653 60.8584 56.8968 57.7905 56.8968 54.0548C56.8968 50.3189 59.704 47.2459 63.263 47.2459C66.8218 47.2459 69.6903 50.3135 69.6291 54.0548C69.6291 57.7905 66.8218 60.8584 63.263 60.8584Z" fill="#5865F2"/>
</svg>
