<svg width="98" height="98" viewBox="0 0 98 98" fill="none" xmlns="http://www.w3.org/2000/svg">
<path d="M18.7139 70.7273C14.5081 66.2602 12.25 61.2499 12.25 53.1282C12.25 38.8365 22.2827 26.0271 36.8725 19.6938L40.5189 25.3207C26.901 32.687 24.2387 42.2461 23.177 48.2731C25.3698 47.1379 28.2403 46.7418 31.0538 47.0032C38.4201 47.6851 44.2266 53.7325 44.2266 61.2499C44.2266 65.0403 42.7209 68.6755 40.0407 71.3557C37.3604 74.0359 33.7253 75.5416 29.9349 75.5416C27.8387 75.5235 25.7671 75.0885 23.8407 74.262C21.9142 73.4355 20.1715 72.2339 18.7139 70.7273ZM59.5473 70.7273C55.3414 66.2602 53.0833 61.2499 53.0833 53.1282C53.0833 38.8365 63.1161 26.0271 77.7058 19.6938L81.3523 25.3207C67.7343 32.687 65.072 42.2461 64.0103 48.2731C66.2031 47.1379 69.0737 46.7418 71.8871 47.0032C79.2534 47.6851 85.0599 53.7325 85.0599 61.2499C85.0599 65.0403 83.5542 68.6755 80.874 71.3557C78.1938 74.0359 74.5586 75.5416 70.7682 75.5416C68.6721 75.5235 66.6004 75.0885 64.674 74.262C62.7476 73.4355 61.0048 72.2339 59.5473 70.7273Z" fill="#FF7801"/>
</svg>
